<svg width="50" height="48" viewBox="0 0 50 48" fill="none" xmlns="http://www.w3.org/2000/svg">
<path d="M42.9916 31.422C42.0156 30.9251 37.1713 28.5473 36.2663 28.2279C35.3613 27.8908 34.7047 27.731 34.0482 28.7248C33.3916 29.7185 31.5107 31.9188 30.9251 32.5931C30.3573 33.2497 29.7717 33.3384 28.7957 32.8415C23.0109 29.9491 19.2136 27.6778 15.3984 21.13C14.387 19.391 16.4099 19.5152 18.2908 15.7533C18.6102 15.0968 18.4505 14.5289 18.2021 14.0321C17.9537 13.5352 15.984 8.69091 15.1678 6.72124C14.3692 4.80481 13.553 5.07098 12.9497 5.03549C12.3818 5 11.7253 5 11.0687 5C10.4122 5 9.34747 5.24843 8.44248 6.22439C7.5375 7.2181 5 9.5959 5 14.4402C5 19.2845 8.53121 23.9692 9.01032 24.6257C9.50717 25.2823 15.9485 35.2193 25.8324 39.4958C32.0785 42.193 34.5273 42.4237 37.6504 41.9624C39.5491 41.6784 43.4707 39.5846 44.2869 37.2777C45.1032 34.9709 45.1032 33.0012 44.8548 32.5931C44.6241 32.1495 43.9675 31.9011 42.9916 31.422Z" fill="white"/>
</svg>
